<?xml version="1.0" encoding="utf-8"?>
<!-- Generator: Adobe Illustrator 19.0.0, SVG Export Plug-In . SVG Version: 6.00 Build 0)  -->
<svg version="1.1" id="Jungle_Testnet_Logo" xmlns="http://www.w3.org/2000/svg" xmlns:xlink="http://www.w3.org/1999/xlink"
	 x="0px" y="0px" viewBox="0 0 260 260" style="enable-background:new 0 0 260 260;" xml:space="preserve">
<style type="text/css">
	.st0{fill:#FFFFFF;}
</style>
<g id="lettering">
	<path id="XMLID_68_" class="st0" d="M6.5,242.7V240h8.7v11.8c0,2.1-0.5,3.6-1.6,4.7c-1.1,1-2.4,1.6-4.1,1.6c-2.1,0-3.8-0.7-5.3-2.2
		l1.7-2.4c1.2,1.1,2.3,1.7,3.4,1.7c0.8,0,1.4-0.3,2-0.8c0.6-0.5,0.8-1.3,0.8-2.4v-9.2H6.5z"/>
	<path id="XMLID_66_" class="st0" d="M25.8,253.8c0.8,1,1.9,1.4,3.3,1.4c1.4,0,2.5-0.5,3.3-1.4c0.8-1,1.2-2.2,1.2-3.9V240h3v10
		c0,2.6-0.7,4.5-2.1,5.9c-1.4,1.4-3.2,2.1-5.4,2.1s-4-0.7-5.4-2.1c-1.4-1.4-2.1-3.4-2.1-5.9v-10h3v9.9
		C24.5,251.5,25,252.8,25.8,253.8z"/>
	<path id="XMLID_64_" class="st0" d="M56.4,240h3v17.8h-3.3l-10.1-13v13h-3V240h3l10.3,13.3V240z"/>
	<path id="XMLID_62_" class="st0" d="M78.5,249.2h3v6.1c-1.7,1.9-4.1,2.8-7.2,2.8c-2.6,0-4.8-0.9-6.6-2.6c-1.8-1.7-2.7-3.9-2.7-6.6
		c0-2.7,0.9-4.9,2.7-6.6c1.8-1.8,4-2.7,6.6-2.7c2.6,0,4.7,0.7,6.4,2.2l-1.6,2.3c-0.7-0.6-1.4-1-2.1-1.2c-0.7-0.2-1.5-0.3-2.5-0.3
		c-1.8,0-3.3,0.6-4.5,1.7c-1.2,1.2-1.8,2.7-1.8,4.6s0.6,3.4,1.8,4.6c1.2,1.1,2.6,1.7,4.3,1.7c1.7,0,3.1-0.4,4.2-1.1V249.2z"/>
	<path id="XMLID_60_" class="st0" d="M87.3,257.9V240h3v15h8.1v2.9H87.3z"/>
	<path id="XMLID_58_" class="st0" d="M115.7,240v2.8h-9.5v4.7h8.5v2.7h-8.5v4.8h9.8v2.8h-12.8V240H115.7z"/>
	<path id="XMLID_56_" class="st0" d="M140.6,242.8v15.1h-3v-15.1h-5.4V240H146v2.8H140.6z"/>
	<path id="XMLID_54_" class="st0" d="M163.1,240v2.8h-9.5v4.7h8.5v2.7h-8.5v4.8h9.8v2.8h-12.8V240H163.1z"/>
	<path id="XMLID_52_" class="st0" d="M174.6,242.4c-0.9,0-1.6,0.2-2.2,0.5c-0.6,0.4-0.8,0.9-0.8,1.6c0,0.7,0.3,1.3,0.8,1.7
		c0.6,0.4,1.8,0.8,3.6,1.2c1.8,0.4,3.2,1.1,4.1,1.9c0.9,0.8,1.4,2,1.4,3.5c0,1.6-0.6,2.8-1.8,3.8c-1.2,1-2.7,1.5-4.6,1.5
		c-2.8,0-5.3-1-7.4-2.9l1.9-2.3c1.8,1.6,3.7,2.3,5.6,2.3c1,0,1.7-0.2,2.3-0.6c0.6-0.4,0.9-1,0.9-1.7c0-0.7-0.3-1.2-0.8-1.6
		c-0.5-0.4-1.5-0.7-2.8-1c-1.3-0.3-2.3-0.6-3-0.9c-0.7-0.3-1.3-0.6-1.8-1c-1.1-0.8-1.6-2-1.6-3.7c0-1.6,0.6-2.9,1.8-3.8
		c1.2-0.9,2.7-1.3,4.4-1.3c1.1,0,2.3,0.2,3.4,0.6c1.1,0.4,2.1,0.9,2.9,1.6l-1.6,2.3c-0.5-0.5-1.2-0.9-2.1-1.2
		C176.3,242.5,175.4,242.4,174.6,242.4z"/>
	<path id="XMLID_50_" class="st0" d="M193.8,242.8v15.1h-3v-15.1h-5.4V240h13.8v2.8H193.8z"/>
	<path id="XMLID_48_" class="st0" d="M217.2,240h3v17.8H217l-10.1-13v13h-3V240h3l10.3,13.3V240z"/>
	<path id="XMLID_46_" class="st0" d="M239.4,240v2.8h-9.5v4.7h8.5v2.7h-8.5v4.8h9.8v2.8h-12.8V240H239.4z"/>
	<path id="XMLID_44_" class="st0" d="M252.1,242.8v15.1h-3v-15.1h-5.4V240h13.8v2.8H252.1z"/>
</g>
<g id="geometron_and_leaf">
	<g id="XMLID_9_">
		<path id="XMLID_42_" class="st0" d="M106.4,147.9c-5-0.5-10-0.3-14.6,0.5c4.7,1.7,10.5,3.6,16.6,5.9L106.4,147.9z"/>
		<path id="XMLID_41_" class="st0" d="M102.2,134.6c-5.4-0.4-10.8,0-15.7,1l-0.1,0.1c5.1,1.6,11.3,3.3,17.8,5.5L102.2,134.6z"/>
		<path id="XMLID_40_" class="st0" d="M98.1,121.5c-1.2-0.1-2.3-0.1-3.5-0.1L92,126c2.7,0.7,5.4,1.4,8.3,2.3L98.1,121.5z"/>
		<path id="XMLID_39_" class="st0" d="M129.2,167.6c-4.2-2.3-8.6-3.9-13.1-5l2.6,8.3c2.2,1.1,4.4,2.2,6.6,3.4h13.5
			C135.8,171.8,132.6,169.5,129.2,167.6z"/>
		<path id="XMLID_38_" class="st0" d="M94.9,111.1l-0.7-2.4c-5.5-0.3-10.9,0.1-15.9,1.1l-0.4,1.9c4.5,0.9,9.6,1.9,14.9,3.2
			L94.9,111.1z"/>
		<path id="XMLID_37_" class="st0" d="M88.5,70c6.7,1.2,13.2,2.6,18.6,3.8c1.5,2.7,3,5.5,4.5,8.3l1.2-2.2c-1.1-2-2.3-4-3.5-6
			c0.3-9-0.1-20.7-0.6-32.6l-4.6,6.5c0.9,9.7,2.7,18.7,5,25.7c-1.8-3.1-3.7-6.1-5.6-9c0.1-4.5-0.1-9.7-0.4-15.3l-2.9,4.1
			c0.9,4.1,2,8,3.2,11.2c-0.5-0.7-0.9-1.4-1.4-2.1c-1.1-1.6-2.1-3.2-3.2-4.7c-0.1-0.7-0.1-1.4-0.2-2.2l-0.6,0.8
			c0.1,0.3,0.3,0.6,0.4,0.8c-0.2-0.2-0.3-0.5-0.5-0.7l-1,1.3c0.2,0.1,0.5,0.1,0.7,0.2c0.9,1.5,1.8,3,2.7,4.5c-1.5-1-3-1.9-4.7-2.8
			l-2.2,3.2c2.9,0.5,5.6,1,8.1,1.5c1.4,2.4,2.8,4.8,4.2,7.3c-3.9-2.8-8.6-5.2-13.7-6.8L88.5,70z"/>
		<path id="XMLID_36_" class="st0" d="M90.7,81.1c6.7,1.3,13.1,2.9,18.9,4.4l1.7-3c-6.4-4.6-14.5-8.1-23.1-9.7L90.7,81.1z"/>
		<path id="XMLID_35_" class="st0" d="M101.6,97.9c-2-0.5-4-0.9-6.1-1.2l2.6,8.2c0.1,0,0.2,0,0.3,0.1l4-6.9
			C102.1,98,101.9,98,101.6,97.9z"/>
		<path id="XMLID_34_" class="st0" d="M88.9,91.7L86.5,84c-0.7,0-1.4-0.1-2.1-0.1l-1.6,6.7C84.8,90.9,86.8,91.3,88.9,91.7z"/>
		<polygon id="XMLID_33_" class="st0" points="85.3,80.1 85.3,80.1 85.3,80.1 		"/>
		<path id="XMLID_32_" class="st0" d="M94.6,85.1c-0.9-0.2-1.9-0.4-2.8-0.5l2.6,8.3c3.3,0.7,6.5,1.5,9.6,2.4l3.4-5.9
			C103.4,87.4,99.1,86,94.6,85.1z"/>
		<path id="XMLID_31_" class="st0" d="M92.6,103.6l-2.3-7.4c-3-0.2-5.9-0.1-8.8,0.1l-1.2,5C84.2,101.9,88.4,102.7,92.6,103.6z"/>
		<path id="XMLID_30_" class="st0" d="M80.3,123.1c2.1,0.5,4.3,1.1,6.7,1.7l1.8-3.1C85.9,121.9,83,122.4,80.3,123.1z"/>
		<path id="XMLID_29_" class="st0" d="M95.9,50.9l1.9-2.8c-0.7-5.6-1.7-11.8-2.7-18C93.4,20.1,91.7,10,89.4,2.3
			C88.9,11.4,89.3,22,91,32C92.1,38.8,93.8,45.4,95.9,50.9z"/>
		<path id="XMLID_28_" class="st0" d="M133.5,179.3c2.2,1.4,4.4,2.9,6.5,4.4l1.4-4.4H133.5z"/>
		<path id="XMLID_27_" class="st0" d="M108.3,33.4c-0.6-9.9-1.2-19.5-2.4-27.1c-1.9,9.9-2.8,22-2.3,33.7L108.3,33.4z"/>
		<path id="XMLID_26_" class="st0" d="M124.2,10.8c-0.1-1.5-0.2-3-0.4-4.5c-0.5,2.3-1,4.7-1.5,7.1L124.2,10.8z"/>
		<path id="XMLID_25_" class="st0" d="M115.8,22.8c-0.4-6.4-1-12.4-1.7-17.6c-1.4,7.3-2.5,15.6-3,24.2L115.8,22.8z"/>
		<path id="XMLID_24_" class="st0" d="M99,46.6l3.7-5.3c-0.1-2.5-0.3-5.1-0.5-7.6c-0.8-11.2-1.7-22.6-3.1-31.1
			c-1.6,9.6-2.2,21.4-1.4,32.5C98,39,98.4,42.9,99,46.6z"/>
		<path id="XMLID_23_" class="st0" d="M82.1,72.1c-10.5-0.8-21.3,1-30.1,4.6c7.8,0.6,18,1.1,28.4,2.7L82.1,72.1z"/>
		<path id="XMLID_22_" class="st0" d="M149,155l9.8-31.4c0.7-5.1,1.4-10.1,2-14.9l-2.8-4.9c-2.7,9.4-5,19.8-6.5,30
			C150.2,141,149.4,148.2,149,155z"/>
		<path id="XMLID_21_" class="st0" d="M68.8,20.9c0.5,0.8,1.1,1.6,1.6,2.4c1.1,1.6,2.3,3.3,3.5,5c2.5,3.4,5.1,6.9,7.9,10.4
			C86,43.9,90.3,49,94.4,53.1l1.2-1.7C92.9,46,89.3,40.3,85.1,35c-2.8-3.5-5.7-6.8-8.7-9.6c-1.5-1.4-3-2.7-4.5-3.9
			c-0.8-0.6-1.5-1.1-2.3-1.6c-0.4-0.3-0.8-0.5-1.2-0.7c-0.4-0.2-0.8-0.5-1.2-0.6c0.3,0.3,0.6,0.7,0.9,1.1
			C68.3,20.1,68.6,20.5,68.8,20.9z"/>
		<path id="XMLID_20_" class="st0" d="M92.1,56.4l1.7-2.4c-4.5-3.1-10-5.5-15.9-6.7c-8.4-1.7-17.6-0.8-24.9,1.9
			c6.2,0.6,14.7,1.5,23.1,3.3C81.7,53.5,87.2,55,92.1,56.4z"/>
		<path id="XMLID_19_" class="st0" d="M88.2,61.9l3-4.3c-3.6-1.4-7.5-2.3-11.6-2.7c-9.3-1.1-19.2,0.7-27,4.1
			c6.8,0.2,16.2,0.4,25.4,1.5C81.4,60.8,84.9,61.3,88.2,61.9z"/>
		<path id="XMLID_18_" class="st0" d="M126.1,66.6c0.3,16.8,1.6,35.9,4.3,49.1c-1.1-2.6-2.2-5.1-3.3-7.7c-1.1-2.4-2.2-4.8-3.3-7.1
			c0.9-9.3,1.3-20.7,1.5-32.7l-5.6,9.7c0.8,8.2,2.1,15.8,3.7,22.3c-2.1-4.3-4.2-8.5-6.5-12.7c0.1,0,0.1,0,0.2,0.1
			c-0.1-0.1-0.2-0.2-0.4-0.3c0,0,0,0,0-0.1c0.1-1.4,0.2-2.9,0.2-4.5l-1.2,2.1c0.1,0.3,0.2,0.6,0.3,1c-0.1-0.2-0.3-0.5-0.4-0.7
			l-1.3,2.3c1.5,3,3.1,6.1,4.6,9.2c-2.2-1.8-4.5-3.4-7.1-4.8l-2.9,5c4.2,1.2,8.1,2.4,11.7,3.6c1.5,3.2,2.9,6.3,4.3,9.6
			c0.1,0.2,0.1,0.3,0.2,0.5c-5-4.4-11.2-8.2-18-10.6l-3.9,6.7c8.5,2.4,16.7,5.4,23.5,7.9c1.4,3.4,2.8,6.9,4.2,10.3
			c-6-5.9-14-10.8-22.8-13.4c-2.2-0.7-4.5-1.2-6.7-1.6l-1.2,2.2l1.8,5.6c1.1,0.3,2.1,0.6,3.2,1c9.9,2.9,19.5,7,27.4,10.3
			c0.7,2,1.5,3.9,2.2,5.9c0.6,1.6,1.1,3.2,1.7,4.8c-5.7-6.3-13.5-11.6-22.2-14.6c-3.5-1.3-7.2-2.1-10.8-2.7l2.5,8
			c1.7,0.6,3.4,1.1,5.1,1.8c5.5,1.9,10.9,4.2,16,6.5c3.8,1.8,7.5,3.5,10.8,5.2c1.2,3.7,2.4,7.4,3.5,11.2c-5.4-6.7-13-12.5-21.5-16
			c-4-1.6-8.1-2.8-12.3-3.4l2.5,7.9c2.1,0.8,4.3,1.6,6.4,2.5c5.4,2.2,10.7,4.8,15.6,7.3c3.8,2,7.3,4,10.6,5.8
			c0.2,0.6,0.3,1.1,0.5,1.7c0.7,2.5,1.3,4.9,2,7.4l1.4-4.5c-0.4-1.4-0.7-2.9-1.1-4.3c0,0,0,0,0,0c2.5-11.3,4.7-26,6.6-40.9
			c0.9-7,1.7-14.1,2.3-20.9l-3.3-5.8c-2.1,8.6-3.7,17.9-4.9,27c-1.7,13.5-2.1,26.8-1.5,37.7c-1.2-4.2-2.4-8.4-3.8-12.6
			c2.1-11.3,3.8-25.9,5.2-40.7c0.5-5.9,1-11.8,1.4-17.5l-3.8-6.6c-1.6,8-2.8,16.4-3.6,24.7c-1.2,13.4-1.2,26.6-0.1,37.3
			c-0.9-2.7-1.8-5.4-2.7-8c-0.5-1.4-1-2.8-1.6-4.2c1.7-11.3,2.9-25.8,3.8-40.5c0.3-5.1,0.6-10.2,0.8-15.2l-4.1-7.2
			c-1.3,7.6-2.2,15.5-2.6,23.3c-0.8,13.4-0.3,26.4,1.1,37c-1.1-2.8-2.2-5.5-3.3-8.2c1.2-14.6,2-37.4,1.9-56.2c0-0.3,0-0.6,0-0.9
			l-1.8-3.2L126.1,66.6z"/>
		<path id="XMLID_17_" class="st0" d="M110.2,167c0.8,0.4,1.6,0.7,2.5,1.1l-2-6.5c-4.8-0.6-9.5-0.7-13.9-0.1
			C100.7,163.1,105.3,164.9,110.2,167z"/>
		<path id="XMLID_16_" class="st0" d="M124.8,152.9c-4.2-2-8.6-3.4-13.1-4.2l2.5,8c2.3,1,4.6,2,6.9,3.1c5.2,2.5,10.3,5.3,15.1,8.2
			c2.5,1.5,5,3.1,7.3,4.5l1.1-3.5C139.6,162.4,132.7,156.6,124.8,152.9z"/>
		<path id="XMLID_15_" class="st0" d="M128.7,52.2V20.5c-1.6,11.3-2.6,23.9-2.7,36.4L128.7,52.2z"/>
		<path id="XMLID_14_" class="st0" d="M77.9,89.9l1.4-6c-6.9,0.3-13.7,1.6-19.7,3.7C64.9,88.2,71.2,88.9,77.9,89.9z"/>
		<path id="XMLID_13_" class="st0" d="M67,99c2.6,0.4,5.4,0.9,8.5,1.4l0.8-3.5C73,97.4,69.9,98.1,67,99z"/>
		<path id="XMLID_12_" class="st0" d="M54.5,66.7c7.4,0.5,17.5,0.9,27.4,2.3c0.4,0.1,0.8,0.1,1.2,0.2l4-5.7
			c-1.1-0.2-2.2-0.4-3.3-0.5C73.7,61.5,63,63.2,54.5,66.7z"/>
		<path id="XMLID_11_" class="st0" d="M110.9,48.3c0.3,10.5,1.5,20.6,3.2,29.4l3.1-5.3c0.1-8-0.1-16.8-0.3-25.6
			c-0.2-5.4-0.4-10.8-0.6-16.1l-5.4,7.7C110.8,41.7,110.8,45,110.9,48.3z"/>
		<path id="XMLID_10_" class="st0" d="M118.6,55.6c0,4.6,0.1,9.2,0.4,13.6l6.4-11.1c0-1.3,0-2.7,0-4c0-12.3-0.1-24.6-0.7-35.4
			l-4.1,5.8C119.3,34.5,118.6,45.1,118.6,55.6z"/>
	</g>
	<path id="XMLID_8_" class="st0" d="M116.1,179.3H69.5c1.3,0.8,2.8,1.8,4.4,3l52.8,31.2L116.1,179.3z"/>
	<g id="XMLID_3_">
		<polygon id="XMLID_7_" class="st0" points="177.4,80.1 167.8,111.1 196.5,161 		"/>
		<polygon id="XMLID_6_" class="st0" points="133.9,52.2 164.4,105.3 175,71.2 133.9,12.9 		"/>
		<polygon id="XMLID_5_" class="st0" points="146.6,179.3 136,213.4 193.7,179.3 		"/>
		<polygon id="XMLID_4_" class="st0" points="165.8,117.5 148.1,174.4 198.5,174.4 		"/>
	</g>
</g>
</svg>
